<svg xmlns="http://www.w3.org/2000/svg" width="159.383" height="34.275" viewBox="0 0 159.383 34.275">
  <g id="Group_2892" data-name="Group 2892" transform="translate(-1131 -23)">
    <g id="Taylor_Logo_Black" data-name="Taylor Logo Black" transform="translate(1131 23)">
      <g id="Group_2675" data-name="Group 2675">
        <rect id="Rectangle_1489" data-name="Rectangle 1489" width="5.963" height="5.963" transform="translate(18.585 0.895)" fill="#febe10"/>
        <path id="Path_2809" data-name="Path 2809" d="M663.954,628.936h7.017l-12.5,18.746v13.784h-7.857V647.682l-12.221-18.746h7.341a3.755,3.755,0,0,1,3.253,1.88l5.854,10.158,5.854-10.155A3.762,3.762,0,0,1,663.954,628.936Zm-28.77,2.362,12.505,30.114a.039.039,0,0,1-.036.053h-8.645a.04.04,0,0,1-.037-.024l-2.508-6.339a.038.038,0,0,0-.035-.024H623.892a.039.039,0,0,0-.036.025l-2.37,6.337a.039.039,0,0,1-.037.025h-8.461a.039.039,0,0,1-.036-.053l12.639-30.127a3.83,3.83,0,0,1,3.532-2.35h2.523A3.831,3.831,0,0,1,635.184,631.3Zm-.907,17.435-3.989-11.015a.038.038,0,0,0-.072,0l-4.08,11.014a.04.04,0,0,0,.037.052h8.068A.039.039,0,0,0,634.276,648.734Zm45.574-19.8h-4.732a3.171,3.171,0,0,0-3.171,3.171v26.2a3.163,3.163,0,0,0,3.162,3.162h15.969v-6.847H679.85Zm72.829,32.53h-9.19l-7.063-12.911h-2.678v12.911h-7.673V632.591a3.654,3.654,0,0,1,3.654-3.655h8.751a21.529,21.529,0,0,1,4.572.482,11.913,11.913,0,0,1,4,1.631,8.549,8.549,0,0,1,2.826,3.033,9.477,9.477,0,0,1,1.057,4.686,8.645,8.645,0,0,1-1.792,5.56,9.765,9.765,0,0,1-4.962,3.216Zm-9.511-22.559a3.251,3.251,0,0,0-.485-1.861,3.33,3.33,0,0,0-1.246-1.1,5.447,5.447,0,0,0-1.709-.529,12.666,12.666,0,0,0-1.823-.138h-4.2v7.582h3.739a12.692,12.692,0,0,0,1.986-.161,6.367,6.367,0,0,0,1.846-.574,3.337,3.337,0,0,0,1.893-3.217ZM593.3,632.7v2.939h9.126v25.822h7.857v-32.53H597.064A3.768,3.768,0,0,0,593.3,632.7Zm129.082,5.411a21.569,21.569,0,0,1,0,14.169,15.787,15.787,0,0,1-3.341,5.418,14.629,14.629,0,0,1-5.087,3.437,17.812,17.812,0,0,1-12.842,0,14.64,14.64,0,0,1-5.087-3.437,15.8,15.8,0,0,1-3.342-5.418,21.584,21.584,0,0,1,0-14.169,15.8,15.8,0,0,1,3.342-5.418,14.66,14.66,0,0,1,5.087-3.438,17.812,17.812,0,0,1,12.842,0,14.671,14.671,0,0,1,5.087,3.438A15.786,15.786,0,0,1,722.378,638.116ZM716.1,645.2a13.321,13.321,0,0,0-.607-4.084,9.686,9.686,0,0,0-1.734-3.24,8.091,8.091,0,0,0-12.456,0,9.677,9.677,0,0,0-1.734,3.24,14.131,14.131,0,0,0,0,8.191,9.717,9.717,0,0,0,1.734,3.217,8.092,8.092,0,0,0,12.457,0,9.7,9.7,0,0,0,1.734-3.217A13.258,13.258,0,0,0,716.1,645.2Z" transform="translate(-593.296 -628.063)" fill="#fff"/>
      </g>
    </g>
  </g>
</svg>