<?xml version="1.0" encoding="UTF-8"?>
<svg id="Layer_1" xmlns="http://www.w3.org/2000/svg" version="1.1" viewBox="0 0 126 44.8">
  <!-- Generator: Adobe Illustrator 30.3.0, SVG Export Plug-In . SVG Version: 2.1.3 Build 182)  -->
  <defs>
    <style>
      .st0 {
        fill: #e20714;
      }

      .st0, .st1 {
        fill-rule: evenodd;
      }

      .st1 {
        fill: #fff;
      }
    </style>
  </defs>
  <g id="Symbols">
    <g id="cabecera">
      <g id="logo">
        <g id="Group-27">
          <path id="Fill-1" class="st1" d="M30.5,27c-.4.4-1.1.8-2.3.8s-2-.7-2-1.8.8-1.7,2.5-1.7h1.8v2.7ZM34,30c-.2-.6-.2-1.5-.2-3.3v-5c0-3.3-1.9-4.6-5-4.6s-3.2.3-4.9,1.4l1,2c.8-.5,1.8-.9,3.2-.9s2.4.6,2.4,2.1v.3h-2.2c-3.2.2-5.2,1.6-5.2,4.2s1.8,4.1,4.1,4.1,2.8-.6,3.6-1.4l.5,1.1s2.7,0,2.7,0Z"/>
          <path id="Fill-3" class="st1" d="M41.8,30.3c-4.1,0-6.2-3-6.2-6.5s2.7-6.7,6.5-6.7,2.9.4,3.6.9v2.6c-.9-.7-1.9-1-3.2-1-2.1,0-3.7,1.7-3.7,4.1s1.2,4.1,3.7,4.1,2.1-.4,3-.9l.8,2.1c-1,.7-2.7,1.4-4.4,1.4"/>
          <path id="Fill-5" class="st1" d="M53.1,30.3c-4.1,0-6.2-3-6.2-6.5s2.8-6.7,6.5-6.7,2.9.4,3.6.9v2.6c-.9-.7-1.9-1-3.2-1-2.1,0-3.7,1.7-3.7,4.1s1.2,4.1,3.6,4.1,2.1-.4,3-.9l.8,2.1c-1,.7-2.7,1.4-4.4,1.4"/>
          <path id="Fill-7" class="st1" d="M61,15.5c-1.1,0-2-.9-2-2s.9-1.9,2-1.9,2,.8,2,1.9-.9,2-2,2h0ZM59.4,30h3.2v-12.6h-3.2v12.6Z"/>
          <path id="Fill-9" class="st1" d="M73.8,23.7c0,2.4-1,4.1-3,4.1s-3.1-1.7-3.1-4.1,1-4.1,3-4.1,3.1,1.6,3.1,4.1M77.1,23.7c0-1.9-.6-3.6-1.7-4.8-1.1-1.2-2.7-1.8-4.6-1.8s-3.3.7-4.4,1.8c-1.2,1.2-1.8,2.9-1.8,4.9s.7,3.8,1.9,4.9c1.1,1,2.6,1.6,4.3,1.6s3.4-.7,4.5-1.8c1.2-1.2,1.8-2.9,1.8-4.8"/>
          <path id="Fill-11" class="st1" d="M87.2,30v-7.4c0-1.3-.2-2.8-1.9-2.8s-2.2.6-3.2,1.3v8.8h-3.2v-12.6h2.7l.3,1.4c1.3-1,2.7-1.7,4.4-1.7s3.9,1.1,3.9,4.5v8.4h-3.2.2Z"/>
          <path id="Fill-13" class="st1" d="M99.6,27c-.4.4-1.1.8-2.2.8s-2-.7-2-1.8.8-1.7,2.5-1.7h1.8v2.7h-.1ZM103,30c-.2-.6-.2-1.5-.2-3.3v-5c0-3.3-1.9-4.6-5-4.6s-3.2.3-4.9,1.4l1,2c.8-.5,1.8-.9,3.2-.9s2.4.6,2.4,2.1v.3h-2.2c-3.2.2-5.2,1.6-5.2,4.2s1.8,4.1,4.1,4.1,2.8-.6,3.6-1.4l.5,1.1s2.7,0,2.7,0Z"/>
          <path id="Fill-15" class="st0" d="M17.7,24.2c-.2-.9-.5-1.9-.6-2.8-.4-1.7-.7-3.4-.8-5v-3.4c0-1.2.1-2.2.2-3.2.2-1.3.4-2.3.6-3.3-.2.2-.4.3-.6.5-.2.7-.5,1.6-.8,2.8-.2.8-.3,1.7-.5,2.7-.9-.4-1.8-.9-2.7-1.4v1.3c.8.7,1.6,1.3,2.5,1.8-.1,1.5-.2,3.2,0,5,0,.6,0,1.1.1,1.7-1.8-.5-3.7-1.3-5.3-2.4v1.3c1.7,1.4,3.7,2.6,5.6,3.4.3,1.9.6,3.8.9,5.7-2.5-.3-5.8-1.2-8.4-3v1.3c2.7,2.3,6.1,3.9,8.8,4.4.5,4,.8,8.1-.2,12.9l3.1-1.8c1.2-6.8-.5-12.7-1.9-18.4"/>
          <g id="Group-19">
            <path id="Fill-17" class="st0" d="M14.3,37.1c-3.9,0-11.4-4-14-9.5C.3,27.6.1,27.2,0,27c.1-.2.4-.5.4-.5.9-1.3,2-3.4,2-6.4s-.2-2-.5-3.3c0,0-.1-.6-.2-.8.2-.1.7-.4.7-.4,1.7-1.1,4.6-3.8,5-9.3v-.9c.3,0,.9,0,.9,0,1.7-.3,5-1.1,7.9-3.9,0,0,.5-.5.8-.8.2.2.8.8.8.8,2.9,2.8,6.2,3.7,7.9,3.9,0,0,.6,0,.9,0v.9c0,4.1,1.8,5.8,2.5,6.3-.2.2-.5.4-.6.5-1.7-.7-3.8-2.3-4.1-5.8-1.8-.4-4.6-1.4-7.3-3.6l-.2-.2-.2.2c-2.6,2.2-5.4,3.1-7.2,3.5h-.2v.2c-.7,5.1-3.1,7.9-5.1,9.5h0v.2c.2,1.2.4,2.1.4,2.9,0,2.5-.6,4.8-1.9,6.9h0v.2c-.2,4,8.5,9,11.5,9.1v.7l.2.2Z"/>
          </g>
        </g>
      </g>
    </g>
  </g>
</svg>