<svg xmlns="http://www.w3.org/2000/svg" xmlns:xlink="http://www.w3.org/1999/xlink" xmlns:serif="http://www.serif.com/" width="100%" height="100%" viewBox="0 0 3601 1210" xml:space="preserve" style="fill-rule:evenodd;clip-rule:evenodd;stroke-linejoin:round;stroke-miterlimit:2;"><g><rect x="445.354" y="769.59" width="156.875" height="156.876" style="fill:#55e6e6;"></rect><path d="M415.451,578.239l-226.051,-0c4.853,-49.93 52.552,-89.149 110.794,-89.149c0.725,0 1.507,0.056 2.232,0.111c0.725,0 1.506,-0.111 2.231,-0.111c58.243,0 105.941,39.219 110.794,89.149Zm186.779,37.88c0.501,-174.727 -137.629,-282.175 -299.358,-282.175c-161.729,0 -302.872,114.644 -302.872,298.074c0,167.699 120.223,289.204 292.775,294.281c3.737,0.112 83.402,0.167 83.402,0.167l19.582,0l0,-156.875l-97.852,0c-53.278,0 -97.684,-32.859 -108.564,-76.708l217.127,0l-0,0.111l195.592,0c-0.167,-34.755 0.168,-76.819 0.168,-76.819l-0,-0.056Z" style="fill:#fff;fill-rule:nonzero;"></path><rect x="1189.51" y="354.252" width="181.534" height="572.829" style="fill:#fff;"></rect><rect x="1447.63" y="0" width="181.534" height="926.691" style="fill:#fff;"></rect><path d="M2128.69,354.756l195.033,-0l-353.248,854.948l-193.807,-0l141.088,-350.794l-225.718,-504.154l201.172,-0l118.995,296.846l116.54,-296.846l-0.055,-0Z" style="fill:#fff;fill-rule:nonzero;"></path><path d="M2760.77,634.196c-0,-74.812 -58.857,-133.723 -132.497,-133.723c-77.266,-0 -131.269,60.083 -131.269,133.723c0,73.64 53.947,132.496 132.497,132.496c73.584,-0 131.269,-62.538 131.269,-132.496Zm6.136,-287.028l181.534,-0l-0,572.83l-181.534,-0l0,-72.358c-39.275,53.947 -109.177,87.085 -181.534,87.085c-160.669,0 -273.527,-121.45 -273.527,-300.529c-0,-179.079 112.858,-301.756 275.982,-301.756c69.902,0 139.804,30.683 179.079,83.402l0,-68.674Z" style="fill:#fff;fill-rule:nonzero;"></path><path d="M3600.26,615.006l0,307.893l-181.533,0l-0,-296.847c-0,-88.312 -53.948,-122.677 -99.358,-122.677c-49.038,0 -110.405,25.774 -110.405,121.45l0,298.074l-181.533,0l0,-572.829l181.533,0l0,99.358c22.092,-78.494 111.631,-114.086 164.351,-114.086c152.078,-0 226.945,104.267 226.945,279.664Z" style="fill:#fff;fill-rule:nonzero;"></path><rect x="1188.89" y="123.179" width="182.036" height="182.036" style="fill:#55e6e6;"></rect><path d="M1036.71,333.334c-70.683,-0 -140.083,42.12 -173.556,137.573l0,-117.1l-180.975,0l-0,573.276l183.43,0l0,-192.133c0,-171.045 59.526,-231.798 131.38,-231.798c18.577,-0 47.085,1.227 83.068,22.315l43.404,-174.783c-29.736,-14.895 -59.527,-17.35 -86.751,-17.35Z" style="fill:#fff;fill-rule:nonzero;"></path></g></svg>