<svg xmlns="http://www.w3.org/2000/svg" viewBox="0 0 1268 294">
            <title></title>
            <g>
            	<path d="m359.653,0l42.875,43.271V0h-42.875Z" style="fill:#69BE28;"/><path d="m296.571,157.424c0,18.378-13.404,31.584-31.932,31.584-27.791,0-30.976-22.234-30.976-31.584V60.422h-42.151v95.716c0,43.505,27.155,74.125,73.127,74.125s74.083-31.905,74.083-74.125V60.422h-42.151v97.002Zm448.258,34.155c-23.304,0-42.151-21.591-42.151-47.712s18.847-48.676,42.151-48.676c15.315,0,28.429,9.671,34.161,20.949h45.017c-9.582-37.369-39.603-59.955-79.207-59.955-49.504,0-84.938,39.327-84.938,87.331s35.434,86.689,84.938,86.689c39.922,0,69.943-22.235,79.496-59.954h-45.016c-5.414,11.599-18.847,21.27-34.48,21.27m353.448-134.401c-54.6-6.778-86.85,26.12-86.85,73.161v96.038h42.15v-96.038c0-23.52,17.89-38.041,44.7-33.191v-39.97ZM360.232,226.319h42.15V70.502l-42.15-42.541v198.446-.088Zm63.052,0h42.151V.058h-42.151v226.349-.088Zm182.036-150.178c-12.766-13.206-28.747-19.342-48.23-19.342-43.106,0-78.57,39.005-78.57,86.688s34.798,86.689,84.621,86.689,84.301-38.684,84.301-86.689V.058h-42.151v76.141l.029-.058Zm-42.151,114.416c-23.304,0-42.15-20.306-42.15-46.719s18.846-47.712,42.15-47.712,42.151,21.27,42.151,47.712-18.846,46.719-42.151,46.719ZM915.054,56.156c-45.654,0-82.71,37.72-82.71,87.331s37.056,86.689,82.71,86.689,83.028-37.077,83.028-86.689-37.374-87.331-83.028-87.331Zm0,135.044c-22.349,0-40.559-19.342-40.559-47.362s18.21-48.676,40.559-48.676,40.559,19.985,40.559,48.676-18.21,47.362-40.559,47.362ZM146.988,105.826c13.751-9.992,21.712-25.799,21.712-44.498C168.7,23.958,146.351,0,101.971,0H-.222v144.89l80.77,81.517h27.184c42.787,0,69.624-26.325,69.624-66.295,0-25.478-11.493-44.264-30.339-54.257M41.929,38.684h60.042c15.98,0,25.881,10.402,25.881,25.215s-9.148,25.478-25.881,25.478h-60.042v-50.692Zm60.042,148.717h-60.042v-58.99h59.086c21.394,0,33.206,11.395,33.206,30.094,0,21.913-13.925,28.896-32.25,28.896ZM1183.478,55.601c-49.51,0-84.3,39.327-84.3,87.653v148.746l42.15-.38v-148.396c0-25.448,18.84-46.397,42.15-46.397s42.15,20.306,42.15,45.112c0,39.823-39.08,48.355-64.7,42.599l37.6,37.924c41.43-6.807,69.25-38.625,69.25-80.523,0-47.04-34.48-86.367-84.3-86.367" style="fill:#fff;"/>
            </g>
        </svg>