<?xml version="1.0" encoding="UTF-8"?>
<svg id="Layer_2" data-name="Layer 2" xmlns="http://www.w3.org/2000/svg" viewBox="0 0 1163.28 408.18">
  <defs>
    <style>
      .cls-1 {
        fill: #fff;
      }

      .cls-2 {
        fill: #3984cf;
      }
    </style>
  </defs>
  <g id="Layer_1-2" data-name="Layer 1">
    <g>
      <path class="cls-1" d="M7.95,384.2v-25.5c0-14.62,4.05-24.16,19.21-24.16,13.31,0,17.98,7.76,17.98,20.77v5.71h-9.43v-5.08c0-8.02-.18-13.55-8.46-13.55s-9.25,5.88-9.25,14.8v28.61c0,10.88,2.38,14.44,9.25,14.44,8.02,0,8.46-5.79,8.46-14.35v-5.35h9.43v5.35c0,13.28-3.96,22.29-17.98,22.29-15.16,0-19.21-10.52-19.21-23.98Z"/>
      <path class="cls-1" d="M52.98,389.1v-14.98c0-11.59,3.53-18.99,14.89-18.99s14.8,7.4,14.8,18.99v14.98c0,11.59-3.52,18.99-14.8,18.99s-14.89-7.4-14.89-18.99ZM73.25,389.73v-16.13c0-5.79,0-11.41-5.38-11.41s-5.46,5.62-5.46,11.41v16.13c0,5.79,0,11.32,5.46,11.32s5.38-5.53,5.38-11.32Z"/>
      <path class="cls-1" d="M91.31,355.85h9.43v5.08c3.35-3.21,7.49-5.79,12.42-5.79,6.08,0,7.67,5.53,7.67,10.52v41.72h-9.43v-38.96c0-3.65-.79-5.79-4.05-5.79-2.11,0-4.49,1.43-6.61,3.21v41.54h-9.43v-51.52Z"/>
      <path class="cls-1" d="M129.02,387.59v-11.86c0-12.93,2.56-20.59,14.89-20.59,11.1,0,13.92,5.62,13.92,16.22v3.03h-8.55v-3.12c0-6.69-1.15-9.09-5.29-9.09-4.67,0-5.55,2.85-5.55,11.59v16.22c0,8.83,1.41,11.05,5.64,11.05,4.67,0,5.2-3.66,5.2-8.91v-4.19h8.55v3.57c0,10.43-3,16.58-13.92,16.58-12.51,0-14.89-8.11-14.89-20.5Z"/>
      <path class="cls-1" d="M166.47,355.85h9.43v7.31c3.7-6.24,7.49-7.93,11.28-7.93.44,0,.79,0,1.5.09v10.52c-1.41-.54-3.35-1.07-5.2-1.07-2.91,0-5.2,1.07-7.58,4.99v37.62h-9.43v-51.52Z"/>
      <path class="cls-1" d="M193.52,387.5v-11.77c0-13.64,3.35-20.59,15.07-20.59,12.78,0,14.45,8.38,14.45,22.46v4.19h-20.09v10.34c0,6.24,1.67,8.91,5.73,8.91s5.11-3.3,5.11-8.47v-3.12h9.16v1.96c0,10.34-3.96,16.67-14.36,16.67-11.98,0-15.07-7.13-15.07-20.59ZM213.79,376.62v-4.64c0-6.33-.62-9.81-5.29-9.81s-5.55,2.76-5.55,11.68v2.76h10.84Z"/>
      <path class="cls-1" d="M234.14,395.79v-33.61h-5.38v-6.33h5.38v-15.06h9.43v15.06h8.19v6.33h-8.19v32.98c0,4.01.97,5.62,4.67,5.62.88,0,2.29-.09,3.44-.27v7.04c-2.38.36-4.14.53-6.52.53-8.02,0-11.02-4.81-11.02-12.3Z"/>
      <path class="cls-1" d="M257.76,387.5v-11.77c0-13.64,3.35-20.59,15.07-20.59,12.78,0,14.45,8.38,14.45,22.46v4.19h-20.09v10.34c0,6.24,1.67,8.91,5.73,8.91s5.11-3.3,5.11-8.47v-3.12h9.16v1.96c0,10.34-3.96,16.67-14.36,16.67-11.98,0-15.07-7.13-15.07-20.59ZM278.02,376.62v-4.64c0-6.33-.62-9.81-5.29-9.81s-5.55,2.76-5.55,11.68v2.76h10.84Z"/>
      <path class="cls-1" d="M316.35,391.96c0-9.09,4.67-15.6,10.4-20.86-3.26-6.42-7.75-12.84-7.75-20.59,0-9.54,5.82-15.96,15.24-15.96,8.55,0,15.16,4.99,15.16,13.37,0,9.45-7.67,18.01-13.39,23.62l10.75,17.12c1.85-3.66,3-9.36,3.53-14.44h9.34c0,7.04-3.53,15.6-6.87,20.41,1.5,1.96,4.14,3.65,6.96,3.65v9.81h-1.23c-5.11-.09-8.46-4.01-11.37-6.95-3.17,4.01-8.28,7.04-15.33,7.04-9.78,0-15.42-6.78-15.42-16.22ZM341.38,394.9l-10.93-17.03c-2.82,3.65-4.67,8.91-4.67,14.08,0,4.19,1.41,8.29,5.99,8.29s7.4-2.59,9.6-5.35ZM339.97,347.92c0-3.48-2.29-5.53-5.73-5.53-4.23,0-5.82,4.01-5.82,8.11,0,5.53,2.2,11.05,4.32,15.87,3.61-4.37,7.23-11.77,7.23-18.45Z"/>
      <path class="cls-1" d="M389.04,384.2v-25.5c0-14.62,4.05-24.16,19.21-24.16,13.31,0,17.98,7.76,17.98,20.77v5.71h-9.43v-5.08c0-8.02-.18-13.55-8.46-13.55s-9.25,5.88-9.25,14.8v28.61c0,10.88,2.38,14.44,9.25,14.44,8.02,0,8.46-5.79,8.46-14.35v-5.35h9.43v5.35c0,13.28-3.96,22.29-17.98,22.29-15.16,0-19.21-10.52-19.21-23.98Z"/>
      <path class="cls-1" d="M434.07,389.1v-14.98c0-11.59,3.53-18.99,14.89-18.99s14.8,7.4,14.8,18.99v14.98c0,11.59-3.52,18.99-14.8,18.99s-14.89-7.4-14.89-18.99ZM454.34,389.73v-16.13c0-5.79,0-11.41-5.38-11.41s-5.46,5.62-5.46,11.41v16.13c0,5.79,0,11.32,5.46,11.32s5.38-5.53,5.38-11.32Z"/>
      <path class="cls-1" d="M472.66,355.85h9.43v7.31c3.7-6.24,7.49-7.93,11.28-7.93.44,0,.79,0,1.5.09v10.52c-1.41-.54-3.35-1.07-5.2-1.07-2.91,0-5.2,1.07-7.58,4.99v37.62h-9.43v-51.52Z"/>
      <path class="cls-1" d="M500.95,355.85h9.43v7.31c3.7-6.24,7.49-7.93,11.28-7.93.44,0,.79,0,1.5.09v10.52c-1.41-.54-3.35-1.07-5.2-1.07-2.91,0-5.2,1.07-7.58,4.99v37.62h-9.43v-51.52Z"/>
      <path class="cls-1" d="M528.09,389.1v-14.98c0-11.59,3.53-18.99,14.89-18.99s14.8,7.4,14.8,18.99v14.98c0,11.59-3.52,18.99-14.8,18.99s-14.89-7.4-14.89-18.99ZM548.36,389.73v-16.13c0-5.79,0-11.41-5.38-11.41s-5.46,5.62-5.46,11.41v16.13c0,5.79,0,11.32,5.46,11.32s5.38-5.53,5.38-11.32Z"/>
      <path class="cls-1" d="M563.86,393.65l7.84-2.41c.88,6.6,3,9.81,7.31,9.81,3.35,0,5.2-2.14,5.2-5.44,0-2.94-1.23-5.17-4.14-7.67l-8.72-7.58c-3.53-3.03-6.26-6.51-6.26-12.57,0-8.11,5.2-12.66,13.13-12.66s12.34,6.06,12.95,13.55l-6.34,2.41c-.71-5.35-2.2-8.92-6.26-8.92-3.08,0-5.02,2.41-5.02,5.26,0,1.78.71,3.48,2.55,5.17l8.99,8.38c3.61,3.39,7.23,7.31,7.23,13.91,0,8.82-5.73,13.19-14.1,13.19s-13.66-5.79-14.36-14.44Z"/>
      <path class="cls-1" d="M599.99,338.2h9.43v9.98h-9.43v-9.98ZM599.99,355.85h9.43v51.52h-9.43v-51.52Z"/>
      <path class="cls-1" d="M618.67,389.1v-14.98c0-11.59,3.53-18.99,14.89-18.99s14.8,7.4,14.8,18.99v14.98c0,11.59-3.52,18.99-14.8,18.99s-14.89-7.4-14.89-18.99ZM638.93,389.73v-16.13c0-5.79,0-11.41-5.38-11.41s-5.46,5.62-5.46,11.41v16.13c0,5.79,0,11.32,5.46,11.32s5.38-5.53,5.38-11.32Z"/>
      <path class="cls-1" d="M657,355.85h9.43v5.08c3.35-3.21,7.49-5.79,12.42-5.79,6.08,0,7.67,5.53,7.67,10.52v41.72h-9.43v-38.96c0-3.65-.79-5.79-4.05-5.79-2.11,0-4.49,1.43-6.61,3.21v41.54h-9.43v-51.52Z"/>
      <path class="cls-1" d="M716.65,335.17h14.36c14.28,0,20.97,5.44,20.97,19.17,0,8.47-2.47,14.71-8.81,16.85l10.13,36.19h-9.6l-9.34-33.87h-7.75v33.87h-9.96v-72.21ZM730.4,366.28c8.37,0,11.98-2.67,11.98-11.94,0-8.47-2.29-11.95-11.37-11.95h-4.41v23.89h3.79Z"/>
      <path class="cls-1" d="M760.62,387.5v-11.77c0-13.64,3.35-20.59,15.07-20.59,12.78,0,14.45,8.38,14.45,22.46v4.19h-20.09v10.34c0,6.24,1.67,8.91,5.73,8.91s5.11-3.3,5.11-8.47v-3.12h9.16v1.96c0,10.34-3.96,16.67-14.36,16.67-11.98,0-15.07-7.13-15.07-20.59ZM780.89,376.62v-4.64c0-6.33-.62-9.81-5.29-9.81s-5.55,2.76-5.55,11.68v2.76h10.84Z"/>
      <path class="cls-1" d="M798.95,335.17h9.43v26.03c3.44-3.3,7.58-6.06,12.78-6.06,5.99,0,7.58,5.53,7.58,10.52v41.72h-9.43v-38.96c0-3.65-.79-5.79-4.05-5.79-2.2,0-4.76,1.52-6.87,3.39v41.36h-9.43v-72.21Z"/>
      <path class="cls-1" d="M836.84,396.15c0-12.84,9.16-16.58,20.09-20.95v-3.65c0-6.24-.71-9.27-5.11-9.27-3.88,0-5.38,2.85-5.38,7.31v2.58l-9.34-.36c.18-11.41,4.93-16.67,15.33-16.67s13.92,5.71,13.92,16.31v23.53c0,4.81.44,9.09.88,12.39h-8.64c-.35-1.87-.97-5.17-1.23-7.58-1.23,4.01-4.49,8.29-10.31,8.29s-10.22-5.88-10.22-11.94ZM856.93,395.61v-14.62c-5.82,3.39-10.66,6.24-10.66,12.21,0,4.19,1.59,6.69,4.49,6.69,2.73,0,5.38-2.94,6.17-4.28Z"/>
      <path class="cls-1" d="M885.03,403.63v3.74h-9.43v-72.21h9.43v24.78c2.2-2.58,5.29-4.81,9.61-4.81,10.66,0,11.63,13.19,11.63,19.34v12.48c0,10.96-2.56,21.13-12.6,21.13-3.61,0-6.52-2.14-8.64-4.46ZM896.84,386.96v-12.48c0-6.42-.62-11.86-5.46-11.86-2.47,0-4.67,1.25-6.34,2.58v33.07c1.67,1.34,3.97,2.32,6.7,2.32,4.85,0,5.11-6.06,5.11-13.64Z"/>
      <path class="cls-1" d="M915.43,338.2h9.43v9.98h-9.43v-9.98ZM915.43,355.85h9.43v51.52h-9.43v-51.52Z"/>
      <path class="cls-1" d="M935.87,335.17h9.43v72.21h-9.43v-72.21Z"/>
      <path class="cls-1" d="M955.79,338.2h9.43v9.98h-9.43v-9.98ZM955.79,355.85h9.43v51.52h-9.43v-51.52Z"/>
      <path class="cls-1" d="M977.9,395.79v-33.61h-5.38v-6.33h5.38v-15.06h9.43v15.06h8.19v6.33h-8.19v32.98c0,4.01.97,5.62,4.67,5.62.88,0,2.29-.09,3.44-.27v7.04c-2.38.36-4.14.53-6.52.53-8.02,0-11.02-4.81-11.02-12.3Z"/>
      <path class="cls-1" d="M1001.43,396.15c0-12.84,9.16-16.58,20.09-20.95v-3.65c0-6.24-.71-9.27-5.11-9.27-3.88,0-5.38,2.85-5.38,7.31v2.58l-9.34-.36c.18-11.41,4.93-16.67,15.33-16.67s13.92,5.71,13.92,16.31v23.53c0,4.81.44,9.09.88,12.39h-8.64c-.35-1.87-.97-5.17-1.23-7.58-1.23,4.01-4.49,8.29-10.31,8.29s-10.22-5.88-10.22-11.94ZM1021.52,395.61v-14.62c-5.82,3.39-10.66,6.24-10.66,12.21,0,4.19,1.59,6.69,4.49,6.69,2.73,0,5.38-2.94,6.17-4.28Z"/>
      <path class="cls-1" d="M1041.87,395.79v-33.61h-5.38v-6.33h5.38v-15.06h9.43v15.06h8.19v6.33h-8.19v32.98c0,4.01.97,5.62,4.67,5.62.88,0,2.29-.09,3.44-.27v7.04c-2.38.36-4.14.53-6.52.53-8.02,0-11.02-4.81-11.02-12.3Z"/>
      <path class="cls-1" d="M1067.08,338.2h9.43v9.98h-9.43v-9.98ZM1067.08,355.85h9.43v51.52h-9.43v-51.52Z"/>
      <path class="cls-1" d="M1085.75,389.1v-14.98c0-11.59,3.53-18.99,14.89-18.99s14.8,7.4,14.8,18.99v14.98c0,11.59-3.52,18.99-14.8,18.99s-14.89-7.4-14.89-18.99ZM1106.02,389.73v-16.13c0-5.79,0-11.41-5.38-11.41s-5.46,5.62-5.46,11.41v16.13c0,5.79,0,11.32,5.46,11.32s5.38-5.53,5.38-11.32Z"/>
      <path class="cls-1" d="M1124.08,355.85h9.43v5.08c3.35-3.21,7.49-5.79,12.42-5.79,6.08,0,7.67,5.53,7.67,10.52v41.72h-9.43v-38.96c0-3.65-.79-5.79-4.05-5.79-2.11,0-4.49,1.43-6.61,3.21v41.54h-9.43v-51.52Z"/>
    </g>
    <path class="cls-1" d="M91.94,81.01c8.1-8.1,17.68-14.38,28.76-18.83,11.07-4.46,23.22-6.68,36.45-6.68,14.04,0,27.07,2.83,39.09,8.51,12.01,5.67,22.75,14.04,32.2,25.11l42.53-38.88c-13.51-16.47-30.25-28.96-50.23-37.47C200.76,4.25,178.48,0,153.92,0c-21.87,0-42.19,3.58-60.96,10.73-18.77,7.16-35.11,17.35-49.01,30.58-13.91,13.23-24.71,28.76-32.4,46.58C3.85,105.72,0,125.3,0,146.63s3.85,40.91,11.54,58.73c7.7,17.82,18.43,33.35,32.2,46.58,13.77,13.23,30.04,23.43,48.81,30.58,18.77,7.15,39.09,10.73,60.96,10.73,24.84,0,47.25-4.32,67.24-12.96,19.98-8.64,36.72-21.2,50.23-37.67l-42.53-38.88c-9.46,11.08-20.19,19.51-32.2,25.32-12.02,5.81-25.05,8.71-39.09,8.71-13.23,0-25.38-2.23-36.45-6.68-11.08-4.46-20.66-10.73-28.76-18.83-8.1-8.1-14.38-17.68-18.83-28.76-4.46-11.07-6.68-23.35-6.68-36.86s2.23-25.78,6.68-36.86c4.46-11.07,10.73-20.66,18.83-28.76Z"/>
    <path class="cls-1" d="M469.04,4.86h-64.81l-125.97,283.53h67.24l25.27-60.76h131.33l25.27,60.76h68.86L469.04,4.86ZM436.44,69.73l44.95,108.08h-89.9l44.95-108.08h0"/>
    <path class="cls-1" d="M823.87,197.22c.13-.06.26-.11.39-.16,18.36-7.96,32.54-19.58,42.53-34.83,9.99-15.25,14.99-33.55,14.99-54.88,0-31.86-10.94-56.91-32.81-75.14s-52.52-27.34-91.94-27.34h-121.11v283.53h66.02v-79.39h56.71c.97,0,1.93-.02,2.89-.03l55.03,79.42h70.48l-63.18-91.17ZM800.36,143.79c-10.26,8.65-25.38,12.96-45.36,12.96h-53.06V58.33h53.06c19.98,0,35.1,4.25,45.36,12.76,10.26,8.51,15.39,20.59,15.39,36.25s-5.13,27.81-15.39,36.45Z"/>
    <g>
      <rect class="cls-2" x="1105.03" y="4.86" width="58.24" height="52.66"/>
      <polygon class="cls-1" points="1091.79 235.73 1008.95 235.73 1008.95 170.12 1140.59 170.12 1140.59 118.68 1008.95 118.68 1008.95 57.52 1091.79 57.52 1091.79 4.86 943.74 4.86 943.74 288.39 1163.28 288.39 1163.28 235.73 1105.03 235.73 1091.79 235.73"/>
    </g>
  </g>
</svg>